<svg width="1200" height="1114" viewBox="0 0 1200 1114" fill="none" xmlns="http://www.w3.org/2000/svg">
<rect width="1200" height="1114" rx="20" fill="#F8F8F8"/>
<path d="M399.487 139V99.7273H406.601V116.353H424.799V99.7273H431.933V139H424.799V122.317H406.601V139H399.487ZM442.901 150.045C441.955 150.045 441.079 149.969 440.273 149.815C439.481 149.675 438.848 149.509 438.375 149.317L439.986 143.909C440.996 144.203 441.897 144.344 442.69 144.331C443.482 144.318 444.179 144.069 444.78 143.583C445.393 143.11 445.911 142.317 446.333 141.205L446.928 139.614L436.246 109.545H443.61L450.398 131.79H450.705L457.513 109.545H464.896L453.102 142.567C452.553 144.126 451.824 145.462 450.916 146.575C450.008 147.7 448.896 148.556 447.58 149.144C446.276 149.745 444.716 150.045 442.901 150.045ZM469.228 139V99.7273H476.17V114.416H476.458C476.816 113.7 477.321 112.94 477.973 112.134C478.625 111.316 479.507 110.619 480.619 110.044C481.731 109.456 483.15 109.162 484.876 109.162C487.152 109.162 489.204 109.744 491.032 110.907C492.873 112.058 494.33 113.764 495.404 116.027C496.49 118.277 497.034 121.038 497.034 124.311C497.034 127.545 496.503 130.294 495.442 132.557C494.381 134.82 492.936 136.545 491.108 137.734C489.28 138.923 487.209 139.518 484.895 139.518C483.208 139.518 481.808 139.237 480.696 138.674C479.583 138.112 478.689 137.434 478.011 136.641C477.346 135.836 476.829 135.075 476.458 134.359H476.055V139H469.228ZM476.036 124.273C476.036 126.178 476.304 127.846 476.841 129.278C477.391 130.71 478.177 131.828 479.2 132.634C480.235 133.426 481.488 133.822 482.958 133.822C484.493 133.822 485.777 133.413 486.813 132.595C487.848 131.764 488.628 130.633 489.152 129.201C489.689 127.756 489.958 126.114 489.958 124.273C489.958 122.445 489.696 120.821 489.172 119.402C488.647 117.983 487.868 116.871 486.832 116.065C485.797 115.26 484.505 114.857 482.958 114.857C481.476 114.857 480.216 115.247 479.181 116.027C478.145 116.807 477.359 117.9 476.822 119.306C476.298 120.712 476.036 122.368 476.036 124.273ZM502.158 139V109.545H508.888V114.455H509.195C509.732 112.754 510.653 111.444 511.957 110.523C513.273 109.59 514.776 109.124 516.463 109.124C516.847 109.124 517.275 109.143 517.748 109.181C518.234 109.207 518.636 109.251 518.956 109.315V115.701C518.662 115.599 518.195 115.509 517.556 115.433C516.93 115.343 516.322 115.298 515.734 115.298C514.469 115.298 513.331 115.573 512.321 116.123C511.324 116.66 510.538 117.408 509.962 118.366C509.387 119.325 509.099 120.431 509.099 121.684V139H502.158ZM522.79 139V109.545H529.732V139H522.79ZM526.28 105.365C525.181 105.365 524.235 105.001 523.442 104.272C522.65 103.531 522.253 102.642 522.253 101.607C522.253 100.558 522.65 99.6697 523.442 98.941C524.235 98.1996 525.181 97.8288 526.28 97.8288C527.392 97.8288 528.339 98.1996 529.118 98.941C529.911 99.6697 530.307 100.558 530.307 101.607C530.307 102.642 529.911 103.531 529.118 104.272C528.339 105.001 527.392 105.365 526.28 105.365ZM547.023 139.518C544.709 139.518 542.638 138.923 540.81 137.734C538.982 136.545 537.537 134.82 536.476 132.557C535.415 130.294 534.885 127.545 534.885 124.311C534.885 121.038 535.422 118.277 536.495 116.027C537.582 113.764 539.046 112.058 540.887 110.907C542.728 109.744 544.779 109.162 547.042 109.162C548.768 109.162 550.187 109.456 551.299 110.044C552.412 110.619 553.294 111.316 553.946 112.134C554.598 112.94 555.103 113.7 555.461 114.416H555.748V99.7273H562.709V139H555.882V134.359H555.461C555.103 135.075 554.585 135.836 553.907 136.641C553.23 137.434 552.335 138.112 551.223 138.674C550.11 139.237 548.711 139.518 547.023 139.518ZM548.96 133.822C550.43 133.822 551.683 133.426 552.718 132.634C553.754 131.828 554.54 130.71 555.077 129.278C555.614 127.846 555.882 126.178 555.882 124.273C555.882 122.368 555.614 120.712 555.077 119.306C554.553 117.9 553.773 116.807 552.738 116.027C551.715 115.247 550.456 114.857 548.96 114.857C547.413 114.857 546.122 115.26 545.086 116.065C544.051 116.871 543.271 117.983 542.747 119.402C542.223 120.821 541.961 122.445 541.961 124.273C541.961 126.114 542.223 127.756 542.747 129.201C543.284 130.633 544.07 131.764 545.105 132.595C546.154 133.413 547.439 133.822 548.96 133.822ZM596.654 109.545V114.915H579.721V109.545H596.654ZM583.902 102.489H590.843V130.141C590.843 131.074 590.984 131.79 591.265 132.288C591.559 132.774 591.943 133.107 592.416 133.286C592.889 133.464 593.413 133.554 593.988 133.554C594.423 133.554 594.819 133.522 595.177 133.458C595.548 133.394 595.829 133.337 596.021 133.286L597.191 138.712C596.82 138.84 596.289 138.981 595.599 139.134C594.922 139.288 594.091 139.377 593.106 139.403C591.368 139.454 589.801 139.192 588.408 138.616C587.015 138.028 585.909 137.121 585.091 135.893C584.285 134.666 583.889 133.132 583.902 131.291V102.489ZM614.213 139.575C611.337 139.575 608.844 138.942 606.735 137.677C604.625 136.411 602.989 134.641 601.826 132.365C600.675 130.089 600.1 127.43 600.1 124.388C600.1 121.345 600.675 118.68 601.826 116.391C602.989 114.103 604.625 112.326 606.735 111.06C608.844 109.795 611.337 109.162 614.213 109.162C617.09 109.162 619.583 109.795 621.692 111.06C623.801 112.326 625.431 114.103 626.582 116.391C627.745 118.68 628.327 121.345 628.327 124.388C628.327 127.43 627.745 130.089 626.582 132.365C625.431 134.641 623.801 136.411 621.692 137.677C619.583 138.942 617.09 139.575 614.213 139.575ZM614.252 134.014C615.811 134.014 617.115 133.586 618.164 132.729C619.212 131.86 619.992 130.697 620.503 129.239C621.027 127.782 621.289 126.158 621.289 124.369C621.289 122.566 621.027 120.936 620.503 119.479C619.992 118.009 619.212 116.839 618.164 115.969C617.115 115.1 615.811 114.665 614.252 114.665C612.654 114.665 611.324 115.1 610.263 115.969C609.215 116.839 608.429 118.009 607.904 119.479C607.393 120.936 607.137 122.566 607.137 124.369C607.137 126.158 607.393 127.782 607.904 129.239C608.429 130.697 609.215 131.86 610.263 132.729C611.324 133.586 612.654 134.014 614.252 134.014ZM633.441 150.045V109.545H640.268V114.416H640.671C641.029 113.7 641.534 112.94 642.186 112.134C642.838 111.316 643.72 110.619 644.832 110.044C645.944 109.456 647.363 109.162 649.089 109.162C651.365 109.162 653.416 109.744 655.245 110.907C657.085 112.058 658.543 113.764 659.617 116.027C660.703 118.277 661.247 121.038 661.247 124.311C661.247 127.545 660.716 130.294 659.655 132.557C658.594 134.82 657.149 136.545 655.321 137.734C653.493 138.923 651.422 139.518 649.108 139.518C647.421 139.518 646.021 139.237 644.909 138.674C643.796 138.112 642.902 137.434 642.224 136.641C641.559 135.836 641.041 135.075 640.671 134.359H640.383V150.045H633.441ZM640.249 124.273C640.249 126.178 640.517 127.846 641.054 129.278C641.604 130.71 642.39 131.828 643.413 132.634C644.448 133.426 645.701 133.822 647.171 133.822C648.705 133.822 649.99 133.413 651.026 132.595C652.061 131.764 652.841 130.633 653.365 129.201C653.902 127.756 654.171 126.114 654.171 124.273C654.171 122.445 653.909 120.821 653.384 119.402C652.86 117.983 652.08 116.871 651.045 116.065C650.009 115.26 648.718 114.857 647.171 114.857C645.688 114.857 644.429 115.247 643.394 116.027C642.358 116.807 641.572 117.9 641.035 119.306C640.511 120.712 640.249 122.368 640.249 124.273ZM679.262 139.575C676.385 139.575 673.892 138.942 671.783 137.677C669.674 136.411 668.037 134.641 666.874 132.365C665.723 130.089 665.148 127.43 665.148 124.388C665.148 121.345 665.723 118.68 666.874 116.391C668.037 114.103 669.674 112.326 671.783 111.06C673.892 109.795 676.385 109.162 679.262 109.162C682.138 109.162 684.631 109.795 686.74 111.06C688.85 112.326 690.48 114.103 691.63 116.391C692.794 118.68 693.375 121.345 693.375 124.388C693.375 127.43 692.794 130.089 691.63 132.365C690.48 134.641 688.85 136.411 686.74 137.677C684.631 138.942 682.138 139.575 679.262 139.575ZM679.3 134.014C680.86 134.014 682.164 133.586 683.212 132.729C684.26 131.86 685.04 130.697 685.551 129.239C686.076 127.782 686.338 126.158 686.338 124.369C686.338 122.566 686.076 120.936 685.551 119.479C685.04 118.009 684.26 116.839 683.212 115.969C682.164 115.1 680.86 114.665 679.3 114.665C677.702 114.665 676.372 115.1 675.311 115.969C674.263 116.839 673.477 118.009 672.953 119.479C672.441 120.936 672.186 122.566 672.186 124.369C672.186 126.158 672.441 127.782 672.953 129.239C673.477 130.697 674.263 131.86 675.311 132.729C676.372 133.586 677.702 134.014 679.3 134.014ZM705.431 99.7273V139H698.49V99.7273H705.431ZM724.64 139.575C721.764 139.575 719.271 138.942 717.161 137.677C715.052 136.411 713.416 134.641 712.252 132.365C711.102 130.089 710.526 127.43 710.526 124.388C710.526 121.345 711.102 118.68 712.252 116.391C713.416 114.103 715.052 112.326 717.161 111.06C719.271 109.795 721.764 109.162 724.64 109.162C727.516 109.162 730.009 109.795 732.119 111.06C734.228 112.326 735.858 114.103 737.009 116.391C738.172 118.68 738.754 121.345 738.754 124.388C738.754 127.43 738.172 130.089 737.009 132.365C735.858 134.641 734.228 136.411 732.119 137.677C730.009 138.942 727.516 139.575 724.64 139.575ZM724.678 134.014C726.238 134.014 727.542 133.586 728.59 132.729C729.639 131.86 730.418 130.697 730.93 129.239C731.454 127.782 731.716 126.158 731.716 124.369C731.716 122.566 731.454 120.936 730.93 119.479C730.418 118.009 729.639 116.839 728.59 115.969C727.542 115.1 726.238 114.665 724.678 114.665C723.08 114.665 721.751 115.1 720.69 115.969C719.641 116.839 718.855 118.009 718.331 119.479C717.82 120.936 717.564 122.566 717.564 124.369C717.564 126.158 717.82 127.782 718.331 129.239C718.855 130.697 719.641 131.86 720.69 132.729C721.751 133.586 723.08 134.014 724.678 134.014ZM756.678 150.659C754.185 150.659 752.043 150.32 750.254 149.643C748.464 148.978 747.026 148.083 745.939 146.958C744.852 145.833 744.098 144.587 743.676 143.219L749.928 141.704C750.209 142.279 750.618 142.848 751.155 143.411C751.692 143.986 752.414 144.459 753.322 144.83C754.242 145.213 755.399 145.405 756.793 145.405C758.761 145.405 760.391 144.925 761.683 143.967C762.974 143.021 763.619 141.461 763.619 139.288V133.707H763.274C762.916 134.423 762.392 135.158 761.702 135.913C761.024 136.667 760.123 137.3 758.998 137.811C757.886 138.322 756.486 138.578 754.798 138.578C752.536 138.578 750.484 138.048 748.643 136.987C746.815 135.913 745.357 134.315 744.271 132.192C743.197 130.058 742.66 127.386 742.66 124.177C742.66 120.942 743.197 118.213 744.271 115.989C745.357 113.751 746.821 112.058 748.662 110.907C750.503 109.744 752.555 109.162 754.818 109.162C756.543 109.162 757.962 109.456 759.075 110.044C760.2 110.619 761.095 111.316 761.759 112.134C762.424 112.94 762.929 113.7 763.274 114.416H763.658V109.545H770.504V139.479C770.504 141.998 769.903 144.082 768.701 145.731C767.499 147.38 765.857 148.614 763.773 149.432C761.689 150.25 759.324 150.659 756.678 150.659ZM756.735 133.132C758.205 133.132 759.458 132.774 760.494 132.058C761.529 131.342 762.315 130.313 762.852 128.971C763.389 127.629 763.658 126.018 763.658 124.138C763.658 122.285 763.389 120.661 762.852 119.268C762.328 117.874 761.548 116.794 760.513 116.027C759.49 115.247 758.231 114.857 756.735 114.857C755.188 114.857 753.897 115.26 752.862 116.065C751.826 116.871 751.046 117.977 750.522 119.383C749.998 120.776 749.736 122.362 749.736 124.138C749.736 125.941 749.998 127.52 750.522 128.875C751.059 130.217 751.845 131.266 752.881 132.02C753.929 132.761 755.214 133.132 756.735 133.132ZM781.155 150.045C780.209 150.045 779.333 149.969 778.528 149.815C777.735 149.675 777.102 149.509 776.629 149.317L778.24 143.909C779.25 144.203 780.151 144.344 780.944 144.331C781.737 144.318 782.433 144.069 783.034 143.583C783.648 143.11 784.166 142.317 784.587 141.205L785.182 139.614L774.501 109.545H781.864L788.653 131.79H788.96L795.767 109.545H803.15L791.357 142.567C790.807 144.126 790.078 145.462 789.171 146.575C788.263 147.7 787.151 148.556 785.834 149.144C784.53 149.745 782.97 150.045 781.155 150.045Z" fill="black"/>
<line x1="672" y1="553" x2="532" y2="553" stroke="black" stroke-width="2"/>
<line x1="412" y1="553" x2="272" y2="553" stroke="black" stroke-width="2"/>
<circle cx="905" cy="552" r="197" stroke="black" stroke-width="2"/>
<line x1="303.134" y1="499.562" x2="411.134" y2="312.5" stroke="black" stroke-width="2"/>
<line y1="-1" x2="216" y2="-1" transform="matrix(-0.5 -0.866025 -0.866025 0.5 201 500.061)" stroke="black" stroke-width="2"/>
<line x1="201.866" y1="586.5" x2="93.866" y2="773.561" stroke="black" stroke-width="2"/>
<line y1="-1" x2="216" y2="-1" transform="matrix(0.5 0.866025 0.866025 -0.5 304 586)" stroke="black" stroke-width="2"/>
<circle cx="484.5" cy="551.554" r="70" fill="#95D1F9"/>
<path d="M460.5 568.554C458.844 568.554 457.5 569.897 457.5 571.554C457.5 573.21 458.844 574.554 460.5 574.554C462.157 574.554 463.5 573.216 463.5 571.554C463.5 569.891 462.163 568.554 460.5 568.554ZM472.5 568.554C470.844 568.554 469.5 569.897 469.5 571.554C469.5 573.21 470.85 574.554 472.5 574.554C474.15 574.554 475.5 573.216 475.5 571.554C475.5 569.891 474.163 568.554 472.5 568.554ZM512.5 559.554H494.5V549.554C494.5 548.454 493.601 547.554 492.613 547.554C491.625 547.554 490.5 548.454 490.5 549.554V559.554H456.5C452.082 559.554 448.5 563.135 448.5 567.554V575.441C448.5 579.966 452.082 583.554 456.5 583.554H512.5C516.919 583.554 520.5 579.971 520.5 575.554V567.554C520.5 563.141 516.913 559.554 512.5 559.554ZM516.5 575.554C516.5 577.762 514.709 579.554 512.5 579.554H456.5C454.292 579.554 452.5 577.762 452.5 575.554V567.554C452.5 565.345 454.292 563.552 456.5 563.552H512.5C514.709 563.552 516.5 565.345 516.5 567.554V575.554ZM467.788 532.516C474.7 526.737 483.475 523.554 492.5 523.554C501.525 523.554 510.3 526.737 517.225 532.519C517.588 532.829 518.05 532.979 518.5 532.979C519.071 532.979 519.637 532.735 520.035 532.262C520.742 531.414 520.629 530.152 519.781 529.443C512.15 523.067 502.463 519.554 492.5 519.554C482.538 519.554 472.85 523.067 465.225 529.449C464.263 530.157 464.263 531.419 464.963 532.266C465.675 533.116 466.938 533.229 467.788 532.516ZM473.225 538.441C472.263 539.254 472.263 540.516 472.963 541.366C473.675 542.216 474.938 542.316 475.788 541.616C480.463 537.704 486.4 535.554 492.5 535.554C498.6 535.554 504.539 537.707 509.225 541.619C509.588 541.929 510.05 542.079 510.5 542.079C511.071 542.079 511.641 541.835 512.035 541.362C512.742 540.514 512.629 539.252 511.781 538.543C506.388 534.041 499.538 531.554 492.5 531.554C485.463 531.554 478.613 534.041 473.225 538.441Z" fill="black"/>
<circle cx="393.5" cy="773.554" r="70" fill="#95D1F9"/>
<g clip-path="url(#clip0_278_542)">
<path d="M431.5 789.441H355.5C354.406 789.441 353.5 790.347 353.5 791.441V793.441C353.5 797.847 357.094 801.441 361.5 801.441H425.5C429.906 801.441 433.5 797.847 433.5 793.441V791.441C433.5 790.454 432.6 789.441 431.5 789.441ZM425.5 797.554H361.5C359.295 797.554 357.5 795.759 357.5 793.554H429.5C429.5 795.754 427.7 797.554 425.5 797.554ZM363.5 785.554C364.605 785.554 365.5 784.654 365.5 783.554V753.554C365.5 751.346 367.295 749.554 369.5 749.554H417.5C419.705 749.554 421.5 751.346 421.5 753.554V783.554C421.5 784.659 422.395 785.554 423.5 785.554C424.605 785.554 425.5 784.659 425.5 783.554V753.554C425.5 749.144 421.912 745.554 417.5 745.554H369.5C365.088 745.554 361.5 749.144 361.5 753.554V783.554C361.5 784.654 362.395 785.554 363.5 785.554Z" fill="black"/>
</g>
<circle cx="393.5" cy="318.554" r="70" fill="#95D1F9"/>
<g clip-path="url(#clip1_278_542)">
<path d="M431.5 334.441H355.5C354.406 334.441 353.5 335.347 353.5 336.441V338.441C353.5 342.847 357.094 346.441 361.5 346.441H425.5C429.906 346.441 433.5 342.847 433.5 338.441V336.441C433.5 335.454 432.6 334.441 431.5 334.441ZM425.5 342.554H361.5C359.295 342.554 357.5 340.759 357.5 338.554H429.5C429.5 340.754 427.7 342.554 425.5 342.554ZM363.5 330.554C364.605 330.554 365.5 329.654 365.5 328.554V298.554C365.5 296.346 367.295 294.554 369.5 294.554H417.5C419.705 294.554 421.5 296.346 421.5 298.554V328.554C421.5 329.659 422.395 330.554 423.5 330.554C424.605 330.554 425.5 329.659 425.5 328.554V298.554C425.5 294.144 421.912 290.554 417.5 290.554H369.5C365.088 290.554 361.5 294.144 361.5 298.554V328.554C361.5 329.654 362.395 330.554 363.5 330.554Z" fill="black"/>
</g>
<circle cx="904.5" cy="336.554" r="70" fill="#95D1F9"/>
<g clip-path="url(#clip2_278_542)">
<path d="M942.5 352.441H866.5C865.406 352.441 864.5 353.347 864.5 354.441V356.441C864.5 360.847 868.094 364.441 872.5 364.441H936.5C940.906 364.441 944.5 360.847 944.5 356.441V354.441C944.5 353.454 943.6 352.441 942.5 352.441ZM936.5 360.554H872.5C870.295 360.554 868.5 358.759 868.5 356.554H940.5C940.5 358.754 938.7 360.554 936.5 360.554ZM874.5 348.554C875.605 348.554 876.5 347.654 876.5 346.554V316.554C876.5 314.346 878.295 312.554 880.5 312.554H928.5C930.705 312.554 932.5 314.346 932.5 316.554V346.554C932.5 347.659 933.395 348.554 934.5 348.554C935.605 348.554 936.5 347.659 936.5 346.554V316.554C936.5 312.144 932.912 308.554 928.5 308.554H880.5C876.088 308.554 872.5 312.144 872.5 316.554V346.554C872.5 347.654 873.395 348.554 874.5 348.554Z" fill="black"/>
</g>
<circle cx="1088.5" cy="551.554" r="70" fill="#95D1F9"/>
<g clip-path="url(#clip3_278_542)">
<path d="M1126.5 567.441H1050.5C1049.41 567.441 1048.5 568.347 1048.5 569.441V571.441C1048.5 575.847 1052.09 579.441 1056.5 579.441H1120.5C1124.91 579.441 1128.5 575.847 1128.5 571.441V569.441C1128.5 568.454 1127.6 567.441 1126.5 567.441ZM1120.5 575.554H1056.5C1054.3 575.554 1052.5 573.759 1052.5 571.554H1124.5C1124.5 573.754 1122.7 575.554 1120.5 575.554ZM1058.5 563.554C1059.61 563.554 1060.5 562.654 1060.5 561.554V531.554C1060.5 529.346 1062.3 527.554 1064.5 527.554H1112.5C1114.7 527.554 1116.5 529.346 1116.5 531.554V561.554C1116.5 562.659 1117.39 563.554 1118.5 563.554C1119.61 563.554 1120.5 562.659 1120.5 561.554V531.554C1120.5 527.144 1116.91 523.554 1112.5 523.554H1064.5C1060.09 523.554 1056.5 527.144 1056.5 531.554V561.554C1056.5 562.654 1057.39 563.554 1058.5 563.554Z" fill="black"/>
</g>
<circle cx="724.5" cy="553.554" r="70" fill="#95D1F9"/>
<g clip-path="url(#clip4_278_542)">
<path d="M762.5 569.441H686.5C685.406 569.441 684.5 570.347 684.5 571.441V573.441C684.5 577.847 688.094 581.441 692.5 581.441H756.5C760.906 581.441 764.5 577.847 764.5 573.441V571.441C764.5 570.454 763.6 569.441 762.5 569.441ZM756.5 577.554H692.5C690.295 577.554 688.5 575.759 688.5 573.554H760.5C760.5 575.754 758.7 577.554 756.5 577.554ZM694.5 565.554C695.605 565.554 696.5 564.654 696.5 563.554V533.554C696.5 531.346 698.295 529.554 700.5 529.554H748.5C750.705 529.554 752.5 531.346 752.5 533.554V563.554C752.5 564.659 753.395 565.554 754.5 565.554C755.605 565.554 756.5 564.659 756.5 563.554V533.554C756.5 529.144 752.912 525.554 748.5 525.554H700.5C696.088 525.554 692.5 529.144 692.5 533.554V563.554C692.5 564.654 693.395 565.554 694.5 565.554Z" fill="black"/>
</g>
<circle cx="904.5" cy="749.554" r="70" fill="#95D1F9"/>
<g clip-path="url(#clip5_278_542)">
<path d="M942.5 765.441H866.5C865.406 765.441 864.5 766.347 864.5 767.441V769.441C864.5 773.847 868.094 777.441 872.5 777.441H936.5C940.906 777.441 944.5 773.847 944.5 769.441V767.441C944.5 766.454 943.6 765.441 942.5 765.441ZM936.5 773.554H872.5C870.295 773.554 868.5 771.759 868.5 769.554H940.5C940.5 771.754 938.7 773.554 936.5 773.554ZM874.5 761.554C875.605 761.554 876.5 760.654 876.5 759.554V729.554C876.5 727.346 878.295 725.554 880.5 725.554H928.5C930.705 725.554 932.5 727.346 932.5 729.554V759.554C932.5 760.659 933.395 761.554 934.5 761.554C935.605 761.554 936.5 760.659 936.5 759.554V729.554C936.5 725.144 932.912 721.554 928.5 721.554H880.5C876.088 721.554 872.5 725.144 872.5 729.554V759.554C872.5 760.654 873.395 761.554 874.5 761.554Z" fill="black"/>
</g>
<circle cx="111.5" cy="773.554" r="70" fill="#95D1F9"/>
<g clip-path="url(#clip6_278_542)">
<path d="M149.5 789.441H73.5C72.4062 789.441 71.5 790.347 71.5 791.441V793.441C71.5 797.847 75.0938 801.441 79.5 801.441H143.5C147.906 801.441 151.5 797.847 151.5 793.441V791.441C151.5 790.454 150.6 789.441 149.5 789.441ZM143.5 797.554H79.5C77.295 797.554 75.5 795.759 75.5 793.554H147.5C147.5 795.754 145.7 797.554 143.5 797.554ZM81.5 785.554C82.605 785.554 83.5 784.654 83.5 783.554V753.554C83.5 751.346 85.295 749.554 87.5 749.554H135.5C137.705 749.554 139.5 751.346 139.5 753.554V783.554C139.5 784.659 140.395 785.554 141.5 785.554C142.605 785.554 143.5 784.659 143.5 783.554V753.554C143.5 749.144 139.912 745.554 135.5 745.554H87.5C83.0875 745.554 79.5 749.144 79.5 753.554V783.554C79.5 784.654 80.395 785.554 81.5 785.554Z" fill="black"/>
</g>
<circle cx="111.5" cy="318.554" r="70" fill="#95D1F9"/>
<g clip-path="url(#clip7_278_542)">
<path d="M149.5 334.441H73.5C72.4062 334.441 71.5 335.347 71.5 336.441V338.441C71.5 342.847 75.0938 346.441 79.5 346.441H143.5C147.906 346.441 151.5 342.847 151.5 338.441V336.441C151.5 335.454 150.6 334.441 149.5 334.441ZM143.5 342.554H79.5C77.295 342.554 75.5 340.759 75.5 338.554H147.5C147.5 340.754 145.7 342.554 143.5 342.554ZM81.5 330.554C82.605 330.554 83.5 329.654 83.5 328.554V298.554C83.5 296.346 85.295 294.554 87.5 294.554H135.5C137.705 294.554 139.5 296.346 139.5 298.554V328.554C139.5 329.659 140.395 330.554 141.5 330.554C142.605 330.554 143.5 329.659 143.5 328.554V298.554C143.5 294.144 139.912 290.554 135.5 290.554H87.5C83.0875 290.554 79.5 294.144 79.5 298.554V328.554C79.5 329.654 80.395 330.554 81.5 330.554Z" fill="black"/>
</g>
<circle cx="252.5" cy="551.554" r="70" fill="#95D1F9"/>
<g clip-path="url(#clip8_278_542)">
<path d="M290.5 567.441H214.5C213.406 567.441 212.5 568.347 212.5 569.441V571.441C212.5 575.847 216.094 579.441 220.5 579.441H284.5C288.906 579.441 292.5 575.847 292.5 571.441V569.441C292.5 568.454 291.6 567.441 290.5 567.441ZM284.5 575.554H220.5C218.295 575.554 216.5 573.759 216.5 571.554H288.5C288.5 573.754 286.7 575.554 284.5 575.554ZM222.5 563.554C223.605 563.554 224.5 562.654 224.5 561.554V531.554C224.5 529.346 226.295 527.554 228.5 527.554H276.5C278.705 527.554 280.5 529.346 280.5 531.554V561.554C280.5 562.659 281.395 563.554 282.5 563.554C283.605 563.554 284.5 562.659 284.5 561.554V531.554C284.5 527.144 280.912 523.554 276.5 523.554H228.5C224.088 523.554 220.5 527.144 220.5 531.554V561.554C220.5 562.654 221.395 563.554 222.5 563.554Z" fill="black"/>
</g>
<path d="M754.334 967.725C754.334 966.726 754.747 965.728 755.454 965.023C756.162 964.319 757.164 963.907 758.167 963.907C759.17 963.907 760.172 964.319 760.88 965.023C761.587 965.728 762 966.726 762 967.725C762 968.253 761.882 968.723 761.705 969.193C761.528 969.662 761.234 970.074 760.88 970.426C760.526 970.778 760.113 971.072 759.641 971.248C759.17 971.424 758.698 971.542 758.167 971.542C757.636 971.542 757.164 971.424 756.693 971.248C756.221 971.072 755.808 970.778 755.454 970.426C755.1 970.074 754.806 969.662 754.629 969.193C754.393 968.723 754.334 968.194 754.334 967.725ZM755.041 967.725C755.041 968.136 755.1 968.547 755.277 968.899C755.454 969.251 755.631 969.604 755.926 969.897C756.221 970.191 756.575 970.426 756.929 970.602C757.282 970.778 757.695 970.837 758.108 970.837C758.934 970.837 759.759 970.485 760.29 969.897C760.88 969.31 761.175 968.547 761.175 967.666C761.175 966.844 760.821 966.022 760.29 965.434C759.7 964.847 758.934 964.495 758.108 964.495C757.695 964.495 757.282 964.553 756.929 964.73C756.575 964.906 756.221 965.141 755.926 965.434C755.631 965.728 755.395 966.08 755.277 966.433C755.1 966.902 755.041 967.313 755.041 967.725ZM757.577 969.897H756.693V965.552H758.403C759.288 965.552 759.995 966.022 759.995 966.902C759.995 967.196 759.936 967.431 759.759 967.666C759.582 967.901 759.405 968.077 759.111 968.136L759.995 969.897H758.993L758.167 968.312H757.518V969.897H757.577ZM758.344 966.374H757.577V967.431H758.344C758.698 967.431 759.052 967.313 759.052 966.902C759.052 966.491 758.698 966.374 758.344 966.374Z" fill="black"/>
<path fill-rule="evenodd" clip-rule="evenodd" d="M574.523 997.85L558.837 974.419V997.85H551.878V963.907H559.957L574.759 986.105V963.907H581.718V997.85H574.523Z" fill="black"/>
<path fill-rule="evenodd" clip-rule="evenodd" d="M597.7 974.184C590.623 974.184 584.962 979.411 584.962 986.34C584.962 993.329 590.564 998.379 597.641 998.379C604.718 998.379 610.379 993.152 610.379 986.164C610.32 979.293 604.659 974.184 597.7 974.184ZM597.641 992.154C594.457 992.154 591.862 989.746 591.862 986.223C591.862 982.699 594.398 980.35 597.582 980.35C600.767 980.35 603.361 982.758 603.361 986.223C603.361 989.688 600.826 992.154 597.641 992.154Z" fill="black"/>
<path fill-rule="evenodd" clip-rule="evenodd" d="M627.893 974.654V981.29C627.186 981.173 626.419 981.114 625.711 981.114C622.468 981.114 620.168 983.345 620.168 987.691V997.85H613.504V974.713H619.932V978.119H619.991C621.229 975.476 623.588 974.478 626.006 974.478C626.714 974.419 627.303 974.537 627.893 974.654Z" fill="black"/>
<path fill-rule="evenodd" clip-rule="evenodd" d="M647.356 963.849V977.297H647.297C644.879 974.478 641.694 974.243 640.338 974.243C633.674 974.243 629.192 980.351 629.192 986.223C629.192 992.448 633.497 998.262 640.279 998.262C641.871 998.262 645.351 998.027 647.533 994.856H647.592V997.792H654.197V963.849H647.356V963.849ZM641.812 992.154C638.628 992.154 636.033 989.747 636.033 986.223C636.033 982.7 638.628 980.351 641.812 980.351C644.997 980.351 647.592 982.758 647.592 986.223C647.533 989.688 644.938 992.154 641.812 992.154Z" fill="black"/>
<path fill-rule="evenodd" clip-rule="evenodd" d="M668.585 997.85L656.26 963.907H663.867L672.713 989.746L681.618 963.907H689.108L676.723 997.85H668.585Z" fill="black"/>
<path fill-rule="evenodd" clip-rule="evenodd" d="M704.678 963.849H691.999V997.851H699.076V985.871H704.442C711.578 985.871 716.886 982.289 716.886 974.772C716.827 967.549 711.519 963.849 704.678 963.849ZM704.088 979.294H699.017V970.485H704.029C706.978 970.485 709.75 971.601 709.75 974.889C709.75 978.119 706.86 979.294 704.088 979.294Z" fill="black"/>
<path fill-rule="evenodd" clip-rule="evenodd" d="M743.069 997.85L727.382 974.419V997.85H720.424V963.907H728.503L743.305 986.105V963.907H750.264V997.85H743.069Z" fill="black"/>
<path fill-rule="evenodd" clip-rule="evenodd" d="M446.433 1014C440.948 1006.48 438 997.381 438 988.102C438 963.732 457.815 944 482.23 944C506.645 944 526.46 963.732 526.46 988.102C526.46 997.381 523.511 1006.48 518.027 1014L496.796 979.587L494.732 983.052L496.796 992.683L482.23 967.784L473.207 982.993L475.33 992.683L467.663 979.646L446.433 1014Z" fill="#3E5FFF"/>
<defs>
<clipPath id="clip0_278_542">
<rect width="80" height="80" fill="white" transform="translate(353.5 733.554)"/>
</clipPath>
<clipPath id="clip1_278_542">
<rect width="80" height="80" fill="white" transform="translate(353.5 278.554)"/>
</clipPath>
<clipPath id="clip2_278_542">
<rect width="80" height="80" fill="white" transform="translate(864.5 296.554)"/>
</clipPath>
<clipPath id="clip3_278_542">
<rect width="80" height="80" fill="white" transform="translate(1048.5 511.554)"/>
</clipPath>
<clipPath id="clip4_278_542">
<rect width="80" height="80" fill="white" transform="translate(684.5 513.554)"/>
</clipPath>
<clipPath id="clip5_278_542">
<rect width="80" height="80" fill="white" transform="translate(864.5 709.554)"/>
</clipPath>
<clipPath id="clip6_278_542">
<rect width="80" height="80" fill="white" transform="translate(71.5 733.554)"/>
</clipPath>
<clipPath id="clip7_278_542">
<rect width="80" height="80" fill="white" transform="translate(71.5 278.554)"/>
</clipPath>
<clipPath id="clip8_278_542">
<rect width="80" height="80" fill="white" transform="translate(212.5 511.554)"/>
</clipPath>
</defs>
</svg>
